<svg xmlns="http://www.w3.org/2000/svg" width="180.819" height="47.728" viewBox="0 0 180.819 47.728">
    <g id="meddy" fill-rule="evenodd" transform="translate(0 -.272)">
        <path id="Caminho_2" fill="#2ba3c2" d="M23.517 47.09A104.372 104.372 0 0 1 9.094 34.91c-.788-.837-1.541-1.69-2.243-2.543H12.7a97.656 97.656 0 0 0 11.965 10.116l.093.069.092-.07c4.743-3.5 10.732-8.205 14.991-13.53l.217-.271H36l-4.542-7.943-6.7 10.476-6.7-10.476-4.538 7.943H4.135C1.39 24.455 0 20.3 0 16.337A17.234 17.234 0 0 1 3.793 5.332a13.876 13.876 0 0 1 10.89-5.06 15.292 15.292 0 0 1 9.975 3.68l.1.082.1-.082a15.293 15.293 0 0 1 9.976-3.68 13.881 13.881 0 0 1 10.89 5.06 17.239 17.239 0 0 1 3.792 11.005 18.264 18.264 0 0 1-.447 3.956h-4.428a14.4 14.4 0 0 0 .582-3.956c0-5.775-3.568-11.622-10.39-11.622-3.657 0-6.77 1.408-10.075 4.559-3.305-3.151-6.418-4.559-10.076-4.559-6.821 0-10.39 5.847-10.39 11.622a16.551 16.551 0 0 0 2.035 7.555l.045.087h4.558l6.916-12.1 6.912 10.81 6.912-10.81 6.915 12.1h9.307a37.232 37.232 0 0 1-7.471 10.93A104.229 104.229 0 0 1 26 47.089L24.758 48z" data-name="Caminho 2"/>
        <path id="Caminho_3" fill="#333" d="M78.205 15.6a5.9 5.9 0 0 0-5.255 2.465A5.349 5.349 0 0 0 68.2 15.6a5.5 5.5 0 0 0-4.856 2.241v-1.718h-5.435V34.8h5.437V24.266c0-2.2 1.015-3.511 2.827-3.511 1.739 0 2.609 1.195 2.609 3.063V34.8h5.437V24.266c0-2.2 1.014-3.511 2.826-3.511 1.74 0 2.61 1.195 2.61 3.063V34.8h5.436V23.332c0-4.669-2.718-7.732-6.886-7.732m14.922 7.709a4.1 4.1 0 0 1 7.819 0zm.11 4.073h12.909a10.616 10.616 0 0 0 .218-2.182c0-5.491-3.928-9.6-9.237-9.6a9.321 9.321 0 0 0-9.672 9.6c0 5.418 3.854 9.6 10.072 9.6a9.227 9.227 0 0 0 7.928-3.746l-4.364-2.508a4.747 4.747 0 0 1-3.491 1.381c-2 0-3.673-.654-4.364-2.545zm24.353 2.168a4.242 4.242 0 0 1-4.443-4.511 4.444 4.444 0 1 1 8.888 0 4.242 4.242 0 0 1-4.444 4.51zm4.445-21.15v9.133a7.049 7.049 0 0 0-5.565-2.256c-4.892 0-8.925 4.253-8.925 9.762s4.033 9.761 8.925 9.761a7.048 7.048 0 0 0 5.565-2.255v1.738h5.6V8.4zm16.829 21.15a4.242 4.242 0 0 1-4.444-4.511 4.444 4.444 0 1 1 8.887 0 4.241 4.241 0 0 1-4.443 4.51zm4.443-21.15v9.133a7.047 7.047 0 0 0-5.564-2.256c-4.892 0-8.925 4.253-8.925 9.762s4.033 9.761 8.925 9.761a7.046 7.046 0 0 0 5.564-2.255v1.738h5.6V8.4zm20.81 7.2l-3.563 11.532-4.208-11.532h-6.255l7.544 17.976c-.834 2.3-2.085 3.128-4.739 3.128v5.276c5.307.264 8.681-2.11 10.8-8.1l6.486-18.28h-6.065zm12.322-2.65h.308a3.708 3.708 0 0 0 .818-.052.481.481 0 0 0 .343-.468.459.459 0 0 0-.09-.28.488.488 0 0 0-.256-.177 3.584 3.584 0 0 0-.815-.053h-.308v1.03zm-.768 2.175v-3.812h.761c.715 0 1.116 0 1.2.01a1.442 1.442 0 0 1 .59.152.947.947 0 0 1 .351.366 1.09 1.09 0 0 1 .14.546 1.01 1.01 0 0 1-.265.7 1.2 1.2 0 0 1-.744.365.893.893 0 0 1 .264.143 1.9 1.9 0 0 1 .255.291c.028.039.12.193.277.466l.441.768h-.948l-.31-.62a2.594 2.594 0 0 0-.522-.787.83.83 0 0 0-.525-.162h-.2v1.57h-.768zm1.6-4.813a2.872 2.872 0 0 0-1.4.37 2.677 2.677 0 0 0-1.057 1.066 2.932 2.932 0 0 0-.01 2.894 2.716 2.716 0 0 0 1.053 1.07 2.794 2.794 0 0 0 2.834 0 2.725 2.725 0 0 0 1.054-1.07 2.925 2.925 0 0 0-.008-2.894 2.661 2.661 0 0 0-1.059-1.065 2.876 2.876 0 0 0-1.4-.37zm0-.712a3.551 3.551 0 0 1 1.749.464 3.3 3.3 0 0 1 1.317 1.326 3.654 3.654 0 0 1 .01 3.6 3.385 3.385 0 0 1-1.31 1.33 3.513 3.513 0 0 1-3.533 0 3.411 3.411 0 0 1-1.31-1.33 3.659 3.659 0 0 1 .011-3.6 3.3 3.3 0 0 1 1.317-1.326 3.546 3.546 0 0 1 1.749-.464z" data-name="Caminho 3"/>
    </g>
</svg>
